<?xml version="1.0"?>
<!DOCTYPE svg PUBLIC "-//W3C//DTD SVG 1.1//EN" "http://www.w3.org/Graphics/SVG/1.1/DTD/svg11.dtd">
<svg width="25.755mm" height="8.755000000000003mm" viewBox="0 0 25.755 8.755000000000003" xmlns="http://www.w3.org/2000/svg" version="1.1">
<g id="Release_Face" transform="translate(-26.247500,6.002500) scale(1,-1)">
<path id="Release_Face_f0000"  d="M 26.5 3.999999999999999 L 26.5 5.749999999999999 L 26.5 5.749999999999999 L 26.5 3.999999999999999 L 26.5 3.999999999999999 Z " stroke="#191919" stroke-width="0.7 px" style="stroke-width:0.7;stroke-miterlimit:4;stroke-dasharray:none;stroke-linecap:square;fill:#d81919;fill-opacity:1.0;fill-rule: evenodd"/>
<path id="Release_Face_f0001"  d="M 51.75 5.749999999999999 L 51.75 5.749999999999999 L 51.5 5.749999999999999 L 46.75 5.749999999999999 L 31.25 5.749999999999999 L 26.5 5.749999999999999 L 26.5 5.749999999999999 L 51.75 5.749999999999999 Z " stroke="#191919" stroke-width="0.7 px" style="stroke-width:0.7;stroke-miterlimit:4;stroke-dasharray:none;stroke-linecap:square;fill:#d81919;fill-opacity:1.0;fill-rule: evenodd"/>
<path id="Release_Face_f0002"  d="M 26.5 3.999999999999999 L 26.5 -0.75 L 26.5 -0.75 L 26.5 -2.5 L 26.5 -2.5 L 26.5 5.749999999999998 L 26.5 5.749999999999999 L 26.5 3.999999999999999 L 26.5 3.9999999999999996 Z " stroke="#191919" stroke-width="0.7 px" style="stroke-width:0.7;stroke-miterlimit:4;stroke-dasharray:none;stroke-linecap:square;fill:#d81919;fill-opacity:1.0;fill-rule: evenodd"/>
<path id="Release_Face_f0003"  d="M 26.5 4.0 L 26.5 3.999999999999999 L 26.5 5.749999999999999 L 26.5 5.75 L 26.5 4.0 Z " stroke="#191919" stroke-width="0.7 px" style="stroke-width:0.7;stroke-miterlimit:4;stroke-dasharray:none;stroke-linecap:square;fill:#d81919;fill-opacity:1.0;fill-rule: evenodd"/>
<path id="Release_Face_f0004"  d="M 31.25 5.75 L 26.5 5.75 L 26.5 5.749999999999999 L 31.25 5.749999999999999 L 31.25 5.75 Z " stroke="#191919" stroke-width="0.7 px" style="stroke-width:0.7;stroke-miterlimit:4;stroke-dasharray:none;stroke-linecap:square;fill:#d81919;fill-opacity:1.0;fill-rule: evenodd"/>
<path id="Release_Face_f0005"  d="M 31.25 5.749999999999999 L 31.25 5.75 L 46.75 5.75 L 46.75 5.749999999999999 L 31.25 5.749999999999999 Z " stroke="#191919" stroke-width="0.7 px" style="stroke-width:0.7;stroke-miterlimit:4;stroke-dasharray:none;stroke-linecap:square;fill:#d81919;fill-opacity:1.0;fill-rule: evenodd"/>
<path id="Release_Face_f0006"  d="M 51.5 5.75 L 46.75 5.75 L 46.75 5.749999999999999 L 51.5 5.749999999999999 L 51.5 5.75 Z " stroke="#191919" stroke-width="0.7 px" style="stroke-width:0.7;stroke-miterlimit:4;stroke-dasharray:none;stroke-linecap:square;fill:#d81919;fill-opacity:1.0;fill-rule: evenodd"/>
<path id="Release_Face_f0007"  d="M 51.5 5.749999999999999 L 51.5 5.75 L 51.75 5.75 L 51.75 5.749999999999999 L 51.5 5.749999999999999 Z " stroke="#191919" stroke-width="0.7 px" style="stroke-width:0.7;stroke-miterlimit:4;stroke-dasharray:none;stroke-linecap:square;fill:#d81919;fill-opacity:1.0;fill-rule: evenodd"/>
<path id="Release_Face_f0008"  d="M 51.75 3.9999999999999996 L 51.75 3.9999999999999996 L 51.75 5.749999999999999 L 51.75 5.749999999999999 L 51.75 3.999999999999999 Z " stroke="#191919" stroke-width="0.7 px" style="stroke-width:0.7;stroke-miterlimit:4;stroke-dasharray:none;stroke-linecap:square;fill:#d81919;fill-opacity:1.0;fill-rule: evenodd"/>
<path id="Release_Face_f0009"  d="M 51.75 5.749999999999998 L 51.75 5.749999999999999 L 26.5 5.749999999999999 L 26.5 5.749999999999998 L 51.75 5.749999999999998 Z " stroke="#191919" stroke-width="0.7 px" style="stroke-width:0.7;stroke-miterlimit:4;stroke-dasharray:none;stroke-linecap:square;fill:#d81919;fill-opacity:1.0;fill-rule: evenodd"/>
<circle cx="33.8" cy="1.549999999999999" r="1.19" stroke="#191919" stroke-width="0.7 px" style="stroke-width:0.7;stroke-miterlimit:4;stroke-dasharray:none;stroke-linecap:square;fill:#d81919"/>
<path id="Release_Face_f0011"  d="M 51.75 -2.5 L 26.5 -2.5 L 26.5 -2.5 L 51.75 -2.5 L 51.75 -2.5 Z " stroke="#191919" stroke-width="0.7 px" style="stroke-width:0.7;stroke-miterlimit:4;stroke-dasharray:none;stroke-linecap:square;fill:#d81919;fill-opacity:1.0;fill-rule: evenodd"/>
<path id="Release_Face_f0012"  d="M 26.5 -0.75 L 26.5 -2.5 L 26.5 -2.5 L 26.5 -2.250000000000001 L 26.5 -0.7500000000000009 L 26.5 -0.75 Z " stroke="#191919" stroke-width="0.7 px" style="stroke-width:0.7;stroke-miterlimit:4;stroke-dasharray:none;stroke-linecap:square;fill:#d81919;fill-opacity:1.0;fill-rule: evenodd"/>
<path id="Release_Face_f0013"  d="M 26.5 4.0 L 26.5 3.999999999999999 L 26.5 -0.75 L 26.5 -0.75 L 26.5 -2.25 L 26.5 -2.25 L 26.5 5.75 L 26.5 5.749999999999999 L 26.5 4.0 Z " stroke="#191919" stroke-width="0.7 px" style="stroke-width:0.7;stroke-miterlimit:4;stroke-dasharray:none;stroke-linecap:square;fill:#d81919;fill-opacity:1.0;fill-rule: evenodd"/>
<path id="Release_Face_f0014"  d="M 31.25 5.75 L 26.5 5.75 L 26.5 5.749999999999999 L 31.25 5.75 L 31.25 5.75 Z " stroke="#191919" stroke-width="0.7 px" style="stroke-width:0.7;stroke-miterlimit:4;stroke-dasharray:none;stroke-linecap:square;fill:#d81919;fill-opacity:1.0;fill-rule: evenodd"/>
<path id="Release_Face_f0015"  d="M 46.75 4.0 L 31.25 4.0 L 31.25 5.75 L 46.75 5.75 L 46.75 4.0 Z " stroke="#191919" stroke-width="0.7 px" style="stroke-width:0.7;stroke-miterlimit:4;stroke-dasharray:none;stroke-linecap:square;fill:#d81919;fill-opacity:1.0;fill-rule: evenodd"/>
<path id="Release_Face_f0016"  d="M 51.5 5.75 L 46.75 5.75 L 46.75 5.749999999999999 L 51.5 5.75 L 51.5 5.75 Z " stroke="#191919" stroke-width="0.7 px" style="stroke-width:0.7;stroke-miterlimit:4;stroke-dasharray:none;stroke-linecap:square;fill:#d81919;fill-opacity:1.0;fill-rule: evenodd"/>
<path id="Release_Face_f0017"  d="M 51.75 4.0 L 51.5 4.0 L 51.5 5.75 L 51.75 5.75 L 51.75 4.0 Z " stroke="#191919" stroke-width="0.7 px" style="stroke-width:0.7;stroke-miterlimit:4;stroke-dasharray:none;stroke-linecap:square;fill:#d81919;fill-opacity:1.0;fill-rule: evenodd"/>
<path id="Release_Face_f0018"  d="M 51.75 3.9999999999999996 L 51.75 4.0 L 51.75 5.75 L 51.75 5.749999999999999 L 51.75 3.999999999999999 Z " stroke="#191919" stroke-width="0.7 px" style="stroke-width:0.7;stroke-miterlimit:4;stroke-dasharray:none;stroke-linecap:square;fill:#d81919;fill-opacity:1.0;fill-rule: evenodd"/>
<path id="Release_Face_f0019"  d="M 51.75 -2.500000000000001 L 51.75 -2.5 L 51.75 -0.7500000000000009 L 51.75 -0.7500000000000004 L 51.75 3.999999999999999 L 51.75 3.999999999999999 L 51.75 5.749999999999999 L 51.75 5.749999999999998 L 51.75 -2.5000000000000018 Z " stroke="#191919" stroke-width="0.7 px" style="stroke-width:0.7;stroke-miterlimit:4;stroke-dasharray:none;stroke-linecap:square;fill:#d81919;fill-opacity:1.0;fill-rule: evenodd"/>
<circle cx="33.8" cy="1.549999999999999" r="1.19" stroke="#191919" stroke-width="0.7 px" style="stroke-width:0.7;stroke-miterlimit:4;stroke-dasharray:none;stroke-linecap:square;fill:#d81919"/>
<circle cx="37.2" cy="1.549999999999999" r="1.19" stroke="#191919" stroke-width="0.7 px" style="stroke-width:0.7;stroke-miterlimit:4;stroke-dasharray:none;stroke-linecap:square;fill:#d81919"/>
<circle cx="40.7" cy="1.549999999999999" r="1.19" stroke="#191919" stroke-width="0.7 px" style="stroke-width:0.7;stroke-miterlimit:4;stroke-dasharray:none;stroke-linecap:square;fill:#d81919"/>
<circle cx="44.2" cy="1.549999999999999" r="1.19" stroke="#191919" stroke-width="0.7 px" style="stroke-width:0.7;stroke-miterlimit:4;stroke-dasharray:none;stroke-linecap:square;fill:#d81919"/>
<path id="Release_Face_f0025"  d="M 26.5 -2.500000000000001 L 26.5 -2.250000000000001 L 26.5 -2.25 L 26.5 -2.5 L 26.5 -2.5 Z " stroke="#191919" stroke-width="0.7 px" style="stroke-width:0.7;stroke-miterlimit:4;stroke-dasharray:none;stroke-linecap:square;fill:#d81919;fill-opacity:1.0;fill-rule: evenodd"/>
<path id="Release_Face_f0026"  d="M 26.5 -0.75 L 26.5 -0.75 L 26.5 -2.25 L 26.5 -2.25 L 26.5 -0.75 Z " stroke="#191919" stroke-width="0.7 px" style="stroke-width:0.7;stroke-miterlimit:4;stroke-dasharray:none;stroke-linecap:square;fill:#d81919;fill-opacity:1.0;fill-rule: evenodd"/>
<path id="Release_Face_f0027"  d="M 31.25 -2.2500000000000004 L 31.25 -2.2500000000000004 L 26.5 -2.25 L 26.5 -2.25 L 31.25 -2.250000000000001 Z " stroke="#191919" stroke-width="0.7 px" style="stroke-width:0.7;stroke-miterlimit:4;stroke-dasharray:none;stroke-linecap:square;fill:#d81919;fill-opacity:1.0;fill-rule: evenodd"/>
<path id="Release_Face_f0028"  d="M 31.25 5.75 L 26.5 5.75 L 26.5 -2.250000000000001 L 31.25 -2.250000000000001 L 31.25 5.75 Z M 30.6875 3.4375 L 30.6875 0.0625 L 27.3125 0.0625 L 27.3125 3.4375 L 30.6875 3.4375 Z " stroke="#191919" stroke-width="0.7 px" style="stroke-width:0.7;stroke-miterlimit:4;stroke-dasharray:none;stroke-linecap:square;fill:#d81919;fill-opacity:1.0;fill-rule: evenodd"/>
<path id="Release_Face_f0029"  d="M 31.25 -0.7500000000000004 L 31.25 -2.2500000000000004 L 31.25 -2.25 L 31.25 5.75 L 31.25 5.749999999999999 L 31.25 4.0 L 31.25 3.9999999999999996 L 31.25 -0.75 L 31.25 -0.7500000000000007 Z " stroke="#191919" stroke-width="0.7 px" style="stroke-width:0.7;stroke-miterlimit:4;stroke-dasharray:none;stroke-linecap:square;fill:#d81919;fill-opacity:1.0;fill-rule: evenodd"/>
<path id="Release_Face_f0030"  d="M 46.75 4.0 L 31.25 4.0 L 31.25 3.9999999999999996 L 46.75 4.0 L 46.75 3.9999999999999996 Z " stroke="#191919" stroke-width="0.7 px" style="stroke-width:0.7;stroke-miterlimit:4;stroke-dasharray:none;stroke-linecap:square;fill:#d81919;fill-opacity:1.0;fill-rule: evenodd"/>
<path id="Release_Face_f0031"  d="M 46.75 4.0 L 46.75 3.9999999999999996 L 46.75 -0.75 L 46.75 -0.7500000000000007 L 46.75 -2.2500000000000004 L 46.75 -2.25 L 46.75 5.75 L 46.75 5.749999999999999 L 46.75 4.0 Z " stroke="#191919" stroke-width="0.7 px" style="stroke-width:0.7;stroke-miterlimit:4;stroke-dasharray:none;stroke-linecap:square;fill:#d81919;fill-opacity:1.0;fill-rule: evenodd"/>
<path id="Release_Face_f0032"  d="M 51.5 5.75 L 46.75 5.75 L 46.75 -2.250000000000001 L 51.5 -2.250000000000001 L 51.5 5.75 Z M 50.6875 3.4375 L 50.6875 0.0625 L 47.3125 0.0625 L 47.3125 3.4375 L 50.6875 3.4375 Z " stroke="#191919" stroke-width="0.7 px" style="stroke-width:0.7;stroke-miterlimit:4;stroke-dasharray:none;stroke-linecap:square;fill:#d81919;fill-opacity:1.0;fill-rule: evenodd"/>
<path id="Release_Face_f0033"  d="M 51.5 -0.7500000000000004 L 51.5 -2.2500000000000004 L 51.5 -2.25 L 51.5 5.75 L 51.5 5.749999999999999 L 51.5 4.0 L 51.5 3.999999999999999 L 51.5 -0.75 L 51.5 -0.7500000000000007 Z " stroke="#191919" stroke-width="0.7 px" style="stroke-width:0.7;stroke-miterlimit:4;stroke-dasharray:none;stroke-linecap:square;fill:#d81919;fill-opacity:1.0;fill-rule: evenodd"/>
<path id="Release_Face_f0034"  d="M 51.75 3.999999999999999 L 51.5 3.999999999999999 L 51.5 3.9999999999999996 L 51.75 4.0 L 51.75 3.999999999999999 Z " stroke="#191919" stroke-width="0.7 px" style="stroke-width:0.7;stroke-miterlimit:4;stroke-dasharray:none;stroke-linecap:square;fill:#d81919;fill-opacity:1.0;fill-rule: evenodd"/>
<path id="Release_Face_f0035"  d="M 51.75 -2.5 L 51.75 -2.5 L 51.75 -0.7500000000000009 L 51.75 -0.7500000000000004 L 51.75 -2.5 Z " stroke="#191919" stroke-width="0.7 px" style="stroke-width:0.7;stroke-miterlimit:4;stroke-dasharray:none;stroke-linecap:square;fill:#d81919;fill-opacity:1.0;fill-rule: evenodd"/>
<path id="Release_Face_f0036"  d="M 51.5 3.999999999999999 L 51.75 3.999999999999999 L 51.75 -0.75 L 51.5 -0.75 L 51.5 3.999999999999999 Z " stroke="#191919" stroke-width="0.7 px" style="stroke-width:0.7;stroke-miterlimit:4;stroke-dasharray:none;stroke-linecap:square;fill:#d81919;fill-opacity:1.0;fill-rule: evenodd"/>
<circle cx="33.8" cy="1.549999999999999" r="1.19" stroke="#191919" stroke-width="0.7 px" style="stroke-width:0.7;stroke-miterlimit:4;stroke-dasharray:none;stroke-linecap:square;fill:#d81919"/>
<path id="Release_Face_f0038"  d="M 26.5 -2.5000000000000004 L 26.5 -2.5 L 51.75 -2.5 L 51.75 -2.5 L 26.5 -2.5 Z " stroke="#191919" stroke-width="0.7 px" style="stroke-width:0.7;stroke-miterlimit:4;stroke-dasharray:none;stroke-linecap:square;fill:#d81919;fill-opacity:1.0;fill-rule: evenodd"/>
<path id="Release_Face_f0039"  d="M 31.25 -0.75 L 46.75 -0.75 L 46.75 -2.2500000000000004 L 51.5 -2.25 L 51.5 -0.75 L 51.75 -0.75 L 51.75 -2.5 L 26.5 -2.5 L 26.5 -2.25 L 31.25 -2.25 L 31.25 -0.75 Z " stroke="#191919" stroke-width="0.7 px" style="stroke-width:0.7;stroke-miterlimit:4;stroke-dasharray:none;stroke-linecap:square;fill:#d81919;fill-opacity:1.0;fill-rule: evenodd"/>
<path id="Release_Face_f0040"  d="M 30.6875 0.0625 L 27.3125 0.0625 L 27.3125 0.0625 L 30.6875 0.0625 L 30.6875 0.06249999999999911 Z " stroke="#191919" stroke-width="0.7 px" style="stroke-width:0.7;stroke-miterlimit:4;stroke-dasharray:none;stroke-linecap:square;fill:#d81919;fill-opacity:1.0;fill-rule: evenodd"/>
<path id="Release_Face_f0041"  d="M 30.6875 3.4375 L 30.6875 0.0625 L 30.6875 0.06249999999999911 L 30.6875 3.437499999999999 L 30.6875 3.4375 Z " stroke="#191919" stroke-width="0.7 px" style="stroke-width:0.7;stroke-miterlimit:4;stroke-dasharray:none;stroke-linecap:square;fill:#d81919;fill-opacity:1.0;fill-rule: evenodd"/>
<path id="Release_Face_f0042"  d="M 30.6875 3.4375 L 30.6875 3.437499999999999 L 27.3125 3.437499999999999 L 27.3125 3.4375 L 30.6875 3.4375 Z " stroke="#191919" stroke-width="0.7 px" style="stroke-width:0.7;stroke-miterlimit:4;stroke-dasharray:none;stroke-linecap:square;fill:#d81919;fill-opacity:1.0;fill-rule: evenodd"/>
<path id="Release_Face_f0043"  d="M 27.3125 3.4375 L 27.3125 3.437499999999999 L 27.3125 0.06249999999999911 L 27.3125 0.0625 L 27.3125 3.4375 Z " stroke="#191919" stroke-width="0.7 px" style="stroke-width:0.7;stroke-miterlimit:4;stroke-dasharray:none;stroke-linecap:square;fill:#d81919;fill-opacity:1.0;fill-rule: evenodd"/>
<path id="Release_Face_f0044"  d="M 31.25 -0.75 L 31.25 4.0 L 31.25 3.999999999999999 L 31.25 -0.75 L 31.25 -0.7500000000000011 Z " stroke="#191919" stroke-width="0.7 px" style="stroke-width:0.7;stroke-miterlimit:4;stroke-dasharray:none;stroke-linecap:square;fill:#d81919;fill-opacity:1.0;fill-rule: evenodd"/>
<path id="Release_Face_f0045"  d="M 46.75 -0.7500000000000011 L 46.75 -0.7500000000000007 L 31.25 -0.75 L 31.25 -0.75 L 46.75 -0.75 Z " stroke="#191919" stroke-width="0.7 px" style="stroke-width:0.7;stroke-miterlimit:4;stroke-dasharray:none;stroke-linecap:square;fill:#d81919;fill-opacity:1.0;fill-rule: evenodd"/>
<path id="Release_Face_f0046"  d="M 46.75 3.999999999999999 L 31.25 3.999999999999999 L 31.25 3.9999999999999996 L 46.75 3.9999999999999996 L 46.75 3.999999999999999 Z " stroke="#191919" stroke-width="0.7 px" style="stroke-width:0.7;stroke-miterlimit:4;stroke-dasharray:none;stroke-linecap:square;fill:#d81919;fill-opacity:1.0;fill-rule: evenodd"/>
<path id="Release_Face_f0047"  d="M 31.25 -0.75 L 31.25 -1.0 L 47.0 -1.0 L 47.0 3.9999999999999996 L 46.75 4.0 L 46.75 -0.75 L 31.25 -0.75 Z " stroke="#191919" stroke-width="0.7 px" style="stroke-width:0.7;stroke-miterlimit:4;stroke-dasharray:none;stroke-linecap:square;fill:#d81919;fill-opacity:1.0;fill-rule: evenodd"/>
<path id="Release_Face_f0048"  d="M 51.5 -2.2500000000000004 L 51.5 -2.2500000000000004 L 46.75 -2.25 L 46.75 -2.25 L 51.5 -2.250000000000001 Z " stroke="#191919" stroke-width="0.7 px" style="stroke-width:0.7;stroke-miterlimit:4;stroke-dasharray:none;stroke-linecap:square;fill:#d81919;fill-opacity:1.0;fill-rule: evenodd"/>
<path id="Release_Face_f0049"  d="M 50.6875 0.0625 L 47.3125 0.0625 L 47.3125 0.0625 L 50.6875 0.0625 L 50.6875 0.06249999999999911 Z " stroke="#191919" stroke-width="0.7 px" style="stroke-width:0.7;stroke-miterlimit:4;stroke-dasharray:none;stroke-linecap:square;fill:#d81919;fill-opacity:1.0;fill-rule: evenodd"/>
<path id="Release_Face_f0050"  d="M 50.6875 3.4375 L 50.6875 0.0625 L 50.6875 0.06249999999999911 L 50.6875 3.437499999999999 L 50.6875 3.4375 Z " stroke="#191919" stroke-width="0.7 px" style="stroke-width:0.7;stroke-miterlimit:4;stroke-dasharray:none;stroke-linecap:square;fill:#d81919;fill-opacity:1.0;fill-rule: evenodd"/>
<path id="Release_Face_f0051"  d="M 50.6875 3.4375 L 50.6875 3.437499999999999 L 47.3125 3.437499999999999 L 47.3125 3.4375 L 50.6875 3.4375 Z " stroke="#191919" stroke-width="0.7 px" style="stroke-width:0.7;stroke-miterlimit:4;stroke-dasharray:none;stroke-linecap:square;fill:#d81919;fill-opacity:1.0;fill-rule: evenodd"/>
<path id="Release_Face_f0052"  d="M 47.3125 3.4375 L 47.3125 3.437499999999999 L 47.3125 0.06249999999999911 L 47.3125 0.0625 L 47.3125 3.4375 Z " stroke="#191919" stroke-width="0.7 px" style="stroke-width:0.7;stroke-miterlimit:4;stroke-dasharray:none;stroke-linecap:square;fill:#d81919;fill-opacity:1.0;fill-rule: evenodd"/>
<path id="Release_Face_f0053"  d="M 51.75 -0.7500000000000004 L 51.75 -0.75 L 51.5 -0.75 L 51.5 -0.75 L 51.75 -0.7500000000000009 Z " stroke="#191919" stroke-width="0.7 px" style="stroke-width:0.7;stroke-miterlimit:4;stroke-dasharray:none;stroke-linecap:square;fill:#d81919;fill-opacity:1.0;fill-rule: evenodd"/>
<path id="Release_Face_f0054"  d="M 51.75 -2.5000000000000004 L 51.75 -2.5 L 51.75 -0.75 L 51.75 -0.75 L 51.75 -2.5 Z " stroke="#191919" stroke-width="0.7 px" style="stroke-width:0.7;stroke-miterlimit:4;stroke-dasharray:none;stroke-linecap:square;fill:#d81919;fill-opacity:1.0;fill-rule: evenodd"/>
<path id="Release_Face_f0055"  d="M 46.75 3.9999999999999996 L 46.75 3.9999999999999996 L 47.0 3.9999999999999996 L 47.0 3.999999999999999 L 31.25 3.999999999999999 L 31.25 3.999999999999999 L 46.75 3.999999999999999 Z " stroke="#191919" stroke-width="0.7 px" style="stroke-width:0.7;stroke-miterlimit:4;stroke-dasharray:none;stroke-linecap:square;fill:#d81919;fill-opacity:1.0;fill-rule: evenodd"/>
<path id="Release_Face_f0056"  d="M 47.0 3.9999999999999996 L 47.0 3.999999999999999 L 47.0 -1.0000000000000004 L 47.0 -0.9999999999999996 L 47.0 3.9999999999999996 Z " stroke="#191919" stroke-width="0.7 px" style="stroke-width:0.7;stroke-miterlimit:4;stroke-dasharray:none;stroke-linecap:square;fill:#d81919;fill-opacity:1.0;fill-rule: evenodd"/>
<path id="Release_Face_f0057"  d="M 31.25 -1.0 L 31.25 -1.0 L 31.25 3.999999999999999 L 31.25 3.999999999999999 L 31.25 -0.75 L 31.25 -0.7500000000000011 L 31.25 -1.0 Z " stroke="#191919" stroke-width="0.7 px" style="stroke-width:0.7;stroke-miterlimit:4;stroke-dasharray:none;stroke-linecap:square;fill:#d81919;fill-opacity:1.0;fill-rule: evenodd"/>
<path id="Release_Face_f0058"  d="M 47.0 -1.0 L 31.25 -1.0 L 31.25 -0.9999999999999996 L 47.0 -1.0 L 47.0 -1.0 Z " stroke="#191919" stroke-width="0.7 px" style="stroke-width:0.7;stroke-miterlimit:4;stroke-dasharray:none;stroke-linecap:square;fill:#d81919;fill-opacity:1.0;fill-rule: evenodd"/>
<path id="Release_Face_f0059"  d="M 30.6875 3.437499999999999 L 27.3125 3.437499999999999 L 27.3125 0.06249999999999911 L 30.6875 0.06249999999999911 L 30.6875 3.437499999999999 Z " stroke="#191919" stroke-width="0.7 px" style="stroke-width:0.7;stroke-miterlimit:4;stroke-dasharray:none;stroke-linecap:square;fill:#d81919;fill-opacity:1.0;fill-rule: evenodd"/>
<path id="Release_Face_f0060"  d="M 50.6875 3.437499999999999 L 47.3125 3.437499999999999 L 47.3125 0.06249999999999911 L 50.6875 0.06249999999999911 L 50.6875 3.437499999999999 Z " stroke="#191919" stroke-width="0.7 px" style="stroke-width:0.7;stroke-miterlimit:4;stroke-dasharray:none;stroke-linecap:square;fill:#d81919;fill-opacity:1.0;fill-rule: evenodd"/>
<title>b'Release_Face'</title>
</g>
</svg>