<?xml version="1.0"?>
<!DOCTYPE svg PUBLIC "-//W3C//DTD SVG 1.1//EN" "http://www.w3.org/Graphics/SVG/1.1/DTD/svg11.dtd">
<svg width="28.560000000000002mm" height="11.56mm" viewBox="0 0 28.560000000000002 11.56" xmlns="http://www.w3.org/2000/svg" version="1.1">
<g id="Breakaway_Face" transform="translate(-59.970000,5.280000) scale(1,-1)">
<path id="Breakaway_Face_f0000"  d="M 61.25 -2.0 L 61.25 -2.0 L 61.25 4.999999999999999 L 61.25 5.0 L 61.25 -2.0 Z " stroke="#191919" stroke-width="0.7 px" style="stroke-width:0.7;stroke-miterlimit:4;stroke-dasharray:none;stroke-linecap:square;fill:#1933e5;fill-opacity:1.0;fill-rule: evenodd"/>
<circle cx="68.65" cy="-0.20000000000000018" r="0.9799999999999999" stroke="#191919" stroke-width="0.7 px" style="stroke-width:0.7;stroke-miterlimit:4;stroke-dasharray:none;stroke-linecap:square;fill:#1933e5"/>
<path id="Breakaway_Face_f0002"  d="M 61.25 -2.0 L 61.25 -2.0 L 60.25 -2.0 L 60.25 -2.0 L 61.25 -2.0 L 61.25 -2.0 Z " stroke="#191919" stroke-width="0.7 px" style="stroke-width:0.7;stroke-miterlimit:4;stroke-dasharray:none;stroke-linecap:square;fill:#1933e5;fill-opacity:1.0;fill-rule: evenodd"/>
<path id="Breakaway_Face_f0003"  d="M 73.25 4.0 L 81.66666666666667 4.0 L 81.66666666666667 5.0 L 87.25 5.0 L 87.25 2.0 L 87.5 2.0 L 87.5 -5.0 L 74.91666666666667 -5.0 L 66.5 -5.0 L 61.25 -5.0 L 61.25 -2.0 L 61.25 5.0 L 73.25 5.0 L 73.25 4.0 Z M 62.3125 -1.6875 L 62.3125 1.6875 L 65.6875 1.6875 L 65.6875 -1.6875 L 62.3125 -1.6875 Z M 82.3125 -1.6875 L 82.3125 1.6875 L 85.6875 1.6875 L 85.6875 -1.6875 L 82.3125 -1.6875 Z M 66.75 -2.25 L 66.75 1.75 L 81.75 1.75 L 81.75 -2.25 L 66.75 -2.25 Z " stroke="#191919" stroke-width="0.7 px" style="stroke-width:0.7;stroke-miterlimit:4;stroke-dasharray:none;stroke-linecap:square;fill:#1933e5;fill-opacity:1.0;fill-rule: evenodd"/>
<path id="Breakaway_Face_f0004"  d="M 61.25 4.999999999999999 L 61.25 5.0 L 73.25 5.0 L 73.25 5.0 L 61.25 4.999999999999999 Z " stroke="#191919" stroke-width="0.7 px" style="stroke-width:0.7;stroke-miterlimit:4;stroke-dasharray:none;stroke-linecap:square;fill:#1933e5;fill-opacity:1.0;fill-rule: evenodd"/>
<path id="Breakaway_Face_f0005"  d="M 61.25 -2.0 L 60.25 -2.0 L 60.25 -5.0 L 61.25 -5.0 L 61.25 -2.0 Z " stroke="#191919" stroke-width="0.7 px" style="stroke-width:0.7;stroke-miterlimit:4;stroke-dasharray:none;stroke-linecap:square;fill:#1933e5;fill-opacity:1.0;fill-rule: evenodd"/>
<path id="Breakaway_Face_f0006"  d="M 66.5 -5.0 L 61.25 -5.0 L 61.25 -5.0 L 66.5 -5.0 L 66.5 -5.0 Z " stroke="#191919" stroke-width="0.7 px" style="stroke-width:0.7;stroke-miterlimit:4;stroke-dasharray:none;stroke-linecap:square;fill:#1933e5;fill-opacity:1.0;fill-rule: evenodd"/>
<path id="Breakaway_Face_f0007"  d="M 74.91666666666667 -6.0 L 66.5 -6.0 L 66.5 -5.0 L 74.91666666666667 -5.0 L 74.91666666666667 -6.0 Z " stroke="#191919" stroke-width="0.7 px" style="stroke-width:0.7;stroke-miterlimit:4;stroke-dasharray:none;stroke-linecap:square;fill:#1933e5;fill-opacity:1.0;fill-rule: evenodd"/>
<path id="Breakaway_Face_f0008"  d="M 87.5 -5.0 L 74.91666666666667 -5.0 L 74.91666666666667 -5.0 L 87.5 -5.0 L 87.5 -5.000000000000001 Z " stroke="#191919" stroke-width="0.7 px" style="stroke-width:0.7;stroke-miterlimit:4;stroke-dasharray:none;stroke-linecap:square;fill:#1933e5;fill-opacity:1.0;fill-rule: evenodd"/>
<path id="Breakaway_Face_f0009"  d="M 87.5 2.0 L 87.5 2.0 L 87.5 -5.0 L 87.5 -5.000000000000001 L 87.5 2.0 Z " stroke="#191919" stroke-width="0.7 px" style="stroke-width:0.7;stroke-miterlimit:4;stroke-dasharray:none;stroke-linecap:square;fill:#1933e5;fill-opacity:1.0;fill-rule: evenodd"/>
<path id="Breakaway_Face_f0010"  d="M 87.25 2.0 L 87.25 5.0 L 87.5 4.999999999999999 L 87.5 2.0 L 87.25 2.0 Z " stroke="#191919" stroke-width="0.7 px" style="stroke-width:0.7;stroke-miterlimit:4;stroke-dasharray:none;stroke-linecap:square;fill:#1933e5;fill-opacity:1.0;fill-rule: evenodd"/>
<path id="Breakaway_Face_f0011"  d="M 81.66666666666667 5.0 L 81.66666666666667 5.0 L 87.25 5.0 L 87.25 5.0 L 81.66666666666667 4.999999999999999 Z " stroke="#191919" stroke-width="0.7 px" style="stroke-width:0.7;stroke-miterlimit:4;stroke-dasharray:none;stroke-linecap:square;fill:#1933e5;fill-opacity:1.0;fill-rule: evenodd"/>
<path id="Breakaway_Face_f0012"  d="M 73.25 4.0 L 73.25 5.0 L 81.66666666666667 5.0 L 81.66666666666667 4.0 L 73.25 4.0 Z " stroke="#191919" stroke-width="0.7 px" style="stroke-width:0.7;stroke-miterlimit:4;stroke-dasharray:none;stroke-linecap:square;fill:#1933e5;fill-opacity:1.0;fill-rule: evenodd"/>
<circle cx="68.65" cy="-0.20000000000000018" r="0.9799999999999999" stroke="#191919" stroke-width="0.7 px" style="stroke-width:0.7;stroke-miterlimit:4;stroke-dasharray:none;stroke-linecap:square;fill:#1933e5"/>
<circle cx="72.05" cy="-0.20000000000000018" r="0.9799999999999999" stroke="#191919" stroke-width="0.7 px" style="stroke-width:0.7;stroke-miterlimit:4;stroke-dasharray:none;stroke-linecap:square;fill:#1933e5"/>
<circle cx="76.05" cy="-0.20000000000000018" r="0.9799999999999999" stroke="#191919" stroke-width="0.7 px" style="stroke-width:0.7;stroke-miterlimit:4;stroke-dasharray:none;stroke-linecap:square;fill:#1933e5"/>
<circle cx="80.05" cy="-0.20000000000000018" r="0.9799999999999999" stroke="#191919" stroke-width="0.7 px" style="stroke-width:0.7;stroke-miterlimit:4;stroke-dasharray:none;stroke-linecap:square;fill:#1933e5"/>
<path id="Breakaway_Face_f0017"  d="M 61.25 -2.0 L 61.25 -2.0 L 61.25 -5.0 L 61.25 -5.0 L 61.25 -2.0 Z " stroke="#191919" stroke-width="0.7 px" style="stroke-width:0.7;stroke-miterlimit:4;stroke-dasharray:none;stroke-linecap:square;fill:#1933e5;fill-opacity:1.0;fill-rule: evenodd"/>
<path id="Breakaway_Face_f0018"  d="M 60.25 -2.0 L 60.25 -5.0 L 61.25 -5.0 L 61.25 -2.0 L 60.25 -2.0 Z " stroke="#191919" stroke-width="0.7 px" style="stroke-width:0.7;stroke-miterlimit:4;stroke-dasharray:none;stroke-linecap:square;fill:#1933e5;fill-opacity:1.0;fill-rule: evenodd"/>
<path id="Breakaway_Face_f0019"  d="M 60.25 -2.0 L 60.25 -5.0 L 60.25 -5.0 L 60.25 -2.0 L 60.25 -2.0 Z " stroke="#191919" stroke-width="0.7 px" style="stroke-width:0.7;stroke-miterlimit:4;stroke-dasharray:none;stroke-linecap:square;fill:#1933e5;fill-opacity:1.0;fill-rule: evenodd"/>
<path id="Breakaway_Face_f0020"  d="M 74.91666666666667 -5.0 L 66.5 -5.0 L 66.5 -5.0 L 74.91666666666667 -5.0 L 74.91666666666667 -5.0 Z " stroke="#191919" stroke-width="0.7 px" style="stroke-width:0.7;stroke-miterlimit:4;stroke-dasharray:none;stroke-linecap:square;fill:#1933e5;fill-opacity:1.0;fill-rule: evenodd"/>
<path id="Breakaway_Face_f0021"  d="M 87.25 2.0 L 87.25 2.0 L 88.25 2.0 L 88.25 2.0 L 87.5 2.0 L 87.5 2.0 L 87.25 2.0 Z " stroke="#191919" stroke-width="0.7 px" style="stroke-width:0.7;stroke-miterlimit:4;stroke-dasharray:none;stroke-linecap:square;fill:#1933e5;fill-opacity:1.0;fill-rule: evenodd"/>
<path id="Breakaway_Face_f0022"  d="M 87.25 5.0 L 87.25 2.0 L 87.25 2.0 L 87.25 5.0 L 87.25 5.0 Z " stroke="#191919" stroke-width="0.7 px" style="stroke-width:0.7;stroke-miterlimit:4;stroke-dasharray:none;stroke-linecap:square;fill:#1933e5;fill-opacity:1.0;fill-rule: evenodd"/>
<path id="Breakaway_Face_f0023"  d="M 81.66666666666667 5.0 L 81.66666666666667 5.0 L 81.66666666666667 4.0 L 81.66666666666667 4.0 L 81.66666666666667 5.0 Z " stroke="#191919" stroke-width="0.7 px" style="stroke-width:0.7;stroke-miterlimit:4;stroke-dasharray:none;stroke-linecap:square;fill:#1933e5;fill-opacity:1.0;fill-rule: evenodd"/>
<path id="Breakaway_Face_f0024"  d="M 81.66666666666667 4.0 L 81.66666666666667 4.0 L 73.25 4.0 L 73.25 4.0 L 81.66666666666667 4.0 Z " stroke="#191919" stroke-width="0.7 px" style="stroke-width:0.7;stroke-miterlimit:4;stroke-dasharray:none;stroke-linecap:square;fill:#1933e5;fill-opacity:1.0;fill-rule: evenodd"/>
<path id="Breakaway_Face_f0025"  d="M 73.25 5.0 L 73.25 4.0 L 73.25 4.0 L 73.25 5.0 L 73.25 5.0 Z " stroke="#191919" stroke-width="0.7 px" style="stroke-width:0.7;stroke-miterlimit:4;stroke-dasharray:none;stroke-linecap:square;fill:#1933e5;fill-opacity:1.0;fill-rule: evenodd"/>
<path id="Breakaway_Face_f0026"  d="M 65.6875 1.6875 L 65.6875 1.6874999999999996 L 62.3125 1.6874999999999996 L 62.3125 1.6875 L 65.6875 1.6875 Z " stroke="#191919" stroke-width="0.7 px" style="stroke-width:0.7;stroke-miterlimit:4;stroke-dasharray:none;stroke-linecap:square;fill:#1933e5;fill-opacity:1.0;fill-rule: evenodd"/>
<path id="Breakaway_Face_f0027"  d="M 65.6875 1.6875 L 65.6875 -1.6875 L 65.6875 -1.6875 L 65.6875 1.6874999999999996 L 65.6875 1.6875 Z " stroke="#191919" stroke-width="0.7 px" style="stroke-width:0.7;stroke-miterlimit:4;stroke-dasharray:none;stroke-linecap:square;fill:#1933e5;fill-opacity:1.0;fill-rule: evenodd"/>
<path id="Breakaway_Face_f0028"  d="M 62.3125 1.6875 L 62.3125 1.6874999999999996 L 62.3125 -1.6875000000000004 L 62.3125 -1.6875 L 62.3125 1.6874999999999998 Z " stroke="#191919" stroke-width="0.7 px" style="stroke-width:0.7;stroke-miterlimit:4;stroke-dasharray:none;stroke-linecap:square;fill:#1933e5;fill-opacity:1.0;fill-rule: evenodd"/>
<path id="Breakaway_Face_f0029"  d="M 65.6875 -1.6875 L 62.3125 -1.6875 L 62.3125 -1.6875 L 65.6875 -1.6875 L 65.6875 -1.6875 Z " stroke="#191919" stroke-width="0.7 px" style="stroke-width:0.7;stroke-miterlimit:4;stroke-dasharray:none;stroke-linecap:square;fill:#1933e5;fill-opacity:1.0;fill-rule: evenodd"/>
<path id="Breakaway_Face_f0030"  d="M 85.6875 1.6875 L 85.6875 1.6874999999999996 L 82.3125 1.6874999999999996 L 82.3125 1.6875 L 85.6875 1.6875 Z " stroke="#191919" stroke-width="0.7 px" style="stroke-width:0.7;stroke-miterlimit:4;stroke-dasharray:none;stroke-linecap:square;fill:#1933e5;fill-opacity:1.0;fill-rule: evenodd"/>
<path id="Breakaway_Face_f0031"  d="M 85.6875 1.6875 L 85.6875 -1.6875 L 85.6875 -1.6875 L 85.6875 1.6874999999999996 L 85.6875 1.6875 Z " stroke="#191919" stroke-width="0.7 px" style="stroke-width:0.7;stroke-miterlimit:4;stroke-dasharray:none;stroke-linecap:square;fill:#1933e5;fill-opacity:1.0;fill-rule: evenodd"/>
<path id="Breakaway_Face_f0032"  d="M 82.3125 1.6875 L 82.3125 1.6874999999999996 L 82.3125 -1.6875000000000004 L 82.3125 -1.6875 L 82.3125 1.6874999999999998 Z " stroke="#191919" stroke-width="0.7 px" style="stroke-width:0.7;stroke-miterlimit:4;stroke-dasharray:none;stroke-linecap:square;fill:#1933e5;fill-opacity:1.0;fill-rule: evenodd"/>
<path id="Breakaway_Face_f0033"  d="M 85.6875 -1.6875 L 82.3125 -1.6875 L 82.3125 -1.6875 L 85.6875 -1.6875 L 85.6875 -1.6875 Z " stroke="#191919" stroke-width="0.7 px" style="stroke-width:0.7;stroke-miterlimit:4;stroke-dasharray:none;stroke-linecap:square;fill:#1933e5;fill-opacity:1.0;fill-rule: evenodd"/>
<path id="Breakaway_Face_f0034"  d="M 81.75 1.75 L 66.75 1.75 L 66.75 1.75 L 81.75 1.75 L 81.75 1.75 Z " stroke="#191919" stroke-width="0.7 px" style="stroke-width:0.7;stroke-miterlimit:4;stroke-dasharray:none;stroke-linecap:square;fill:#1933e5;fill-opacity:1.0;fill-rule: evenodd"/>
<path id="Breakaway_Face_f0035"  d="M 66.75 -2.25 L 66.75 -2.25 L 66.75 1.75 L 66.75 1.75 L 66.75 -2.25 Z " stroke="#191919" stroke-width="0.7 px" style="stroke-width:0.7;stroke-miterlimit:4;stroke-dasharray:none;stroke-linecap:square;fill:#1933e5;fill-opacity:1.0;fill-rule: evenodd"/>
<path id="Breakaway_Face_f0036"  d="M 81.75 -2.25 L 81.75 1.75 L 81.75 1.75 L 81.75 -2.25 L 81.75 -2.25 Z " stroke="#191919" stroke-width="0.7 px" style="stroke-width:0.7;stroke-miterlimit:4;stroke-dasharray:none;stroke-linecap:square;fill:#1933e5;fill-opacity:1.0;fill-rule: evenodd"/>
<path id="Breakaway_Face_f0037"  d="M 81.75 -2.25 L 81.75 -2.25 L 66.75 -2.25 L 66.75 -2.25 L 81.75 -2.25 Z " stroke="#191919" stroke-width="0.7 px" style="stroke-width:0.7;stroke-miterlimit:4;stroke-dasharray:none;stroke-linecap:square;fill:#1933e5;fill-opacity:1.0;fill-rule: evenodd"/>
<path id="Breakaway_Face_f0038"  d="M 73.25 5.0 L 73.25 5.0 L 81.66666666666667 5.0 L 81.66666666666667 5.0 L 73.25 4.999999999999999 Z " stroke="#191919" stroke-width="0.7 px" style="stroke-width:0.7;stroke-miterlimit:4;stroke-dasharray:none;stroke-linecap:square;fill:#1933e5;fill-opacity:1.0;fill-rule: evenodd"/>
<path id="Breakaway_Face_f0039"  d="M 60.25 -5.0 L 60.25 -5.0 L 61.25 -5.0 L 61.25 -5.0 L 61.25 -5.0 L 60.25 -5.0 Z " stroke="#191919" stroke-width="0.7 px" style="stroke-width:0.7;stroke-miterlimit:4;stroke-dasharray:none;stroke-linecap:square;fill:#1933e5;fill-opacity:1.0;fill-rule: evenodd"/>
<path id="Breakaway_Face_f0040"  d="M 66.5 -5.0 L 66.5 -5.0 L 66.5 -6.0 L 66.5 -6.0 L 66.5 -5.0 L 66.5 -5.0 Z " stroke="#191919" stroke-width="0.7 px" style="stroke-width:0.7;stroke-miterlimit:4;stroke-dasharray:none;stroke-linecap:square;fill:#1933e5;fill-opacity:1.0;fill-rule: evenodd"/>
<path id="Breakaway_Face_f0041"  d="M 74.91666666666667 -6.0 L 74.91666666666667 -6.0 L 74.91666666666667 -5.0 L 74.91666666666667 -5.0 L 74.91666666666667 -5.0 L 74.91666666666667 -6.0 Z " stroke="#191919" stroke-width="0.7 px" style="stroke-width:0.7;stroke-miterlimit:4;stroke-dasharray:none;stroke-linecap:square;fill:#1933e5;fill-opacity:1.0;fill-rule: evenodd"/>
<path id="Breakaway_Face_f0042"  d="M 66.5 -6.0 L 66.5 -6.0 L 74.91666666666667 -6.0 L 74.91666666666667 -6.0 L 66.5 -6.0 Z " stroke="#191919" stroke-width="0.7 px" style="stroke-width:0.7;stroke-miterlimit:4;stroke-dasharray:none;stroke-linecap:square;fill:#1933e5;fill-opacity:1.0;fill-rule: evenodd"/>
<path id="Breakaway_Face_f0043"  d="M 88.25 5.0 L 87.5 5.0 L 87.5 2.0 L 88.25 2.0 L 88.25 5.0 Z " stroke="#191919" stroke-width="0.7 px" style="stroke-width:0.7;stroke-miterlimit:4;stroke-dasharray:none;stroke-linecap:square;fill:#1933e5;fill-opacity:1.0;fill-rule: evenodd"/>
<path id="Breakaway_Face_f0044"  d="M 87.25 5.0 L 87.25 5.0 L 87.5 5.0 L 87.5 4.999999999999999 L 87.25 4.999999999999999 Z " stroke="#191919" stroke-width="0.7 px" style="stroke-width:0.7;stroke-miterlimit:4;stroke-dasharray:none;stroke-linecap:square;fill:#1933e5;fill-opacity:1.0;fill-rule: evenodd"/>
<circle cx="68.65" cy="-0.20000000000000018" r="0.9799999999999999" stroke="#191919" stroke-width="0.7 px" style="stroke-width:0.7;stroke-miterlimit:4;stroke-dasharray:none;stroke-linecap:square;fill:#1933e5"/>
<path id="Breakaway_Face_f0046"  d="M 66.5 -5.0 L 66.5 -6.0 L 74.91666666666667 -6.0 L 74.91666666666667 -5.0 L 66.5 -5.0 Z " stroke="#191919" stroke-width="0.7 px" style="stroke-width:0.7;stroke-miterlimit:4;stroke-dasharray:none;stroke-linecap:square;fill:#1933e5;fill-opacity:1.0;fill-rule: evenodd"/>
<path id="Breakaway_Face_f0047"  d="M 88.25 2.0 L 88.25 2.0 L 88.25 5.0 L 88.25 5.0 L 88.25 2.0 Z " stroke="#191919" stroke-width="0.7 px" style="stroke-width:0.7;stroke-miterlimit:4;stroke-dasharray:none;stroke-linecap:square;fill:#1933e5;fill-opacity:1.0;fill-rule: evenodd"/>
<path id="Breakaway_Face_f0048"  d="M 87.25 5.0 L 87.25 2.0 L 88.25 2.0 L 88.25 5.0 L 87.25 5.0 Z " stroke="#191919" stroke-width="0.7 px" style="stroke-width:0.7;stroke-miterlimit:4;stroke-dasharray:none;stroke-linecap:square;fill:#1933e5;fill-opacity:1.0;fill-rule: evenodd"/>
<path id="Breakaway_Face_f0049"  d="M 88.25 5.0 L 87.25 5.0 L 87.25 5.0 L 87.5 5.0 L 87.5 4.999999999999999 L 88.25 5.0 L 88.25 5.0 Z " stroke="#191919" stroke-width="0.7 px" style="stroke-width:0.7;stroke-miterlimit:4;stroke-dasharray:none;stroke-linecap:square;fill:#1933e5;fill-opacity:1.0;fill-rule: evenodd"/>
<path id="Breakaway_Face_f0050"  d="M 73.25 5.0 L 73.25 4.0 L 81.66666666666667 4.0 L 81.66666666666667 5.0 L 73.25 5.0 Z " stroke="#191919" stroke-width="0.7 px" style="stroke-width:0.7;stroke-miterlimit:4;stroke-dasharray:none;stroke-linecap:square;fill:#1933e5;fill-opacity:1.0;fill-rule: evenodd"/>
<path id="Breakaway_Face_f0051"  d="M 81.66666666666667 5.0 L 73.25 5.0 L 73.25 5.0 L 81.66666666666667 5.0 L 81.66666666666667 5.0 Z " stroke="#191919" stroke-width="0.7 px" style="stroke-width:0.7;stroke-miterlimit:4;stroke-dasharray:none;stroke-linecap:square;fill:#1933e5;fill-opacity:1.0;fill-rule: evenodd"/>
<path id="Breakaway_Face_f0052"  d="M 65.6875 1.6874999999999996 L 62.3125 1.6874999999999996 L 62.3125 -1.6875000000000004 L 65.6875 -1.6875 L 65.6875 1.6874999999999996 Z " stroke="#191919" stroke-width="0.7 px" style="stroke-width:0.7;stroke-miterlimit:4;stroke-dasharray:none;stroke-linecap:square;fill:#1933e5;fill-opacity:1.0;fill-rule: evenodd"/>
<path id="Breakaway_Face_f0053"  d="M 85.6875 1.6874999999999996 L 82.3125 1.6874999999999996 L 82.3125 -1.6875000000000004 L 85.6875 -1.6875 L 85.6875 1.6874999999999996 Z " stroke="#191919" stroke-width="0.7 px" style="stroke-width:0.7;stroke-miterlimit:4;stroke-dasharray:none;stroke-linecap:square;fill:#1933e5;fill-opacity:1.0;fill-rule: evenodd"/>
<title>b'Breakaway_Face'</title>
</g>
</svg>