<?xml version="1.0"?>
<!DOCTYPE svg PUBLIC "-//W3C//DTD SVG 1.1//EN" "http://www.w3.org/Graphics/SVG/1.1/DTD/svg11.dtd">
<svg width="25.500000000000007mm" height="24.500000000000007mm" viewBox="0 0 25.500000000000007 24.500000000000007" xmlns="http://www.w3.org/2000/svg" version="1.1">
<g id="Release_Enclosure_Body" transform="translate(-27.250000,-7.750000) scale(1,-1)">
<path id="Release_Enclosure_Body_f0000"  d="M 28.0 -31.999999999999993 L 52.0 -32.0 L 52.0 -32.0 L 27.999999999999996 -31.999999999999996 L 27.999999999999996 -31.999999999999996 Z M 46.0 -32.0 L 46.0 -32.0 L 34.0 -32.0 L 34.0 -32.0 L 46.0 -32.0 Z " stroke="#191919" stroke-width="0.7 px" style="stroke-width:0.7;stroke-miterlimit:4;stroke-dasharray:none;stroke-linecap:square;fill:#d81919;fill-opacity:1.0;fill-rule: evenodd"/>
<path id="Release_Enclosure_Body_f0001"  d="M 27.499999999999996 -31.499999999999996 L 27.500000000000004 -8.499999999999996 A 0.5 0.5 0 0 0 28 -8L 52.0 -8.000000000000004 A 0.5 0.5 0 0 0 52.5 -8.5L 52.5 -31.5 A 0.5 0.5 0 0 0 52 -32L 27.999999999999996 -31.999999999999996 A 0.5 0.5 0 0 0 27.5 -31.5Z M 51.25 -30.700000000000003 L 51.25 -9.300000000000004 A 0.05 0.05 0 0 1 51.2 -9.25L 28.800000000000004 -9.249999999999996 A 0.05 0.05 0 0 1 28.75 -9.3L 28.749999999999996 -30.699999999999996 A 0.05 0.05 0 0 1 28.8 -30.75L 51.199999999999996 -30.75 A 0.05 0.05 0 0 1 51.25 -30.7Z " stroke="#191919" stroke-width="0.7 px" style="stroke-width:0.7;stroke-miterlimit:4;stroke-dasharray:none;stroke-linecap:square;fill:#d81919;fill-opacity:1.0;fill-rule: evenodd"/>
<path id="Release_Enclosure_Body_f0002"  d="M 52.0 -32.0 A 0.5 0.5 0 0 1 52.5 -31.5L 52.5 -31.500000000000004 A 0.5 0.5 0 0 0 52 -32L 52.0 -32.0 Z " stroke="#191919" stroke-width="0.7 px" style="stroke-width:0.7;stroke-miterlimit:4;stroke-dasharray:none;stroke-linecap:square;fill:#d81919;fill-opacity:1.0;fill-rule: evenodd"/>
<path id="Release_Enclosure_Body_f0003"  d="M 27.999999999999996 -31.999999999999996 A 0.5 0.5 0 0 0 27.5 -31.5L 27.5 -31.499999999999996 A 0.5 0.5 0 0 1 28 -32L 27.999999999999996 -31.999999999999996 Z " stroke="#191919" stroke-width="0.7 px" style="stroke-width:0.7;stroke-miterlimit:4;stroke-dasharray:none;stroke-linecap:square;fill:#d81919;fill-opacity:1.0;fill-rule: evenodd"/>
<path id="Release_Enclosure_Body_f0004"  d="M 27.5 -8.499999999999996 L 27.499999999999996 -31.499999999999996 A 0.5 0.5 0 0 1 28 -32L 52.0 -32.0 A 0.5 0.5 0 0 1 52.5 -31.5L 52.5 -8.500000000000004 A 0.5 0.5 0 0 1 52 -8L 28.000000000000004 -7.9999999999999964 A 0.5 0.5 0 0 1 27.5 -8.5Z " stroke="#191919" stroke-width="0.7 px" style="stroke-width:0.7;stroke-miterlimit:4;stroke-dasharray:none;stroke-linecap:square;fill:#d81919;fill-opacity:1.0;fill-rule: evenodd"/>
<path id="Release_Enclosure_Body_f0005"  d="M 46.0 -30.75 L 46.0 -32.0 L 34.0 -31.999999999999996 L 34.0 -30.75 L 46.0 -30.75 Z " stroke="#191919" stroke-width="0.7 px" style="stroke-width:0.7;stroke-miterlimit:4;stroke-dasharray:none;stroke-linecap:square;fill:#d81919;fill-opacity:1.0;fill-rule: evenodd"/>
<path id="Release_Enclosure_Body_f0006"  d="M 34.0 -30.75 L 34.0 -30.75 L 34.0 -32.0 L 34.0 -32.0 L 34.0 -30.75 Z " stroke="#191919" stroke-width="0.7 px" style="stroke-width:0.7;stroke-miterlimit:4;stroke-dasharray:none;stroke-linecap:square;fill:#d81919;fill-opacity:1.0;fill-rule: evenodd"/>
<path id="Release_Enclosure_Body_f0007"  d="M 46.0 -30.75 L 34.0 -30.749999999999996 L 34.0 -32.0 L 46.0 -32.0 L 46.0 -30.75 Z " stroke="#191919" stroke-width="0.7 px" style="stroke-width:0.7;stroke-miterlimit:4;stroke-dasharray:none;stroke-linecap:square;fill:#d81919;fill-opacity:1.0;fill-rule: evenodd"/>
<path id="Release_Enclosure_Body_f0008"  d="M 46.0 -30.75 L 46.0 -32.0 L 46.0 -32.0 L 46.0 -30.75 L 46.0 -30.75 Z " stroke="#191919" stroke-width="0.7 px" style="stroke-width:0.7;stroke-miterlimit:4;stroke-dasharray:none;stroke-linecap:square;fill:#d81919;fill-opacity:1.0;fill-rule: evenodd"/>
<path id="Release_Enclosure_Body_f0009"  d="M 52.50000000000001 -8.5 L 52.5 -31.5 L 52.5 -31.500000000000004 L 52.5 -8.500000000000004 L 52.5 -8.500000000000004 Z " stroke="#191919" stroke-width="0.7 px" style="stroke-width:0.7;stroke-miterlimit:4;stroke-dasharray:none;stroke-linecap:square;fill:#d81919;fill-opacity:1.0;fill-rule: evenodd"/>
<path id="Release_Enclosure_Body_f0010"  d="M 27.5 -8.499999999999996 L 27.499999999999996 -31.499999999999996 L 27.5 -31.499999999999996 L 27.500000000000004 -8.499999999999996 L 27.500000000000004 -8.499999999999996 Z " stroke="#191919" stroke-width="0.7 px" style="stroke-width:0.7;stroke-miterlimit:4;stroke-dasharray:none;stroke-linecap:square;fill:#d81919;fill-opacity:1.0;fill-rule: evenodd"/>
<path id="Release_Enclosure_Body_f0011"  d="M 52.0 -8.000000000000004 A 0.5 0.5 0 0 0 52.5 -8.5L 52.5 -8.500000000000004 A 0.5 0.5 0 0 1 52 -8L 52.0 -8.000000000000004 Z " stroke="#191919" stroke-width="0.7 px" style="stroke-width:0.7;stroke-miterlimit:4;stroke-dasharray:none;stroke-linecap:square;fill:#d81919;fill-opacity:1.0;fill-rule: evenodd"/>
<path id="Release_Enclosure_Body_f0012"  d="M 28.000000000000004 -7.9999999999999964 A 0.5 0.5 0 0 1 27.5 -8.5L 27.500000000000004 -8.499999999999996 A 0.5 0.5 0 0 0 28 -8L 28.000000000000004 -7.9999999999999964 Z " stroke="#191919" stroke-width="0.7 px" style="stroke-width:0.7;stroke-miterlimit:4;stroke-dasharray:none;stroke-linecap:square;fill:#d81919;fill-opacity:1.0;fill-rule: evenodd"/>
<path id="Release_Enclosure_Body_f0013"  d="M 28.0 -7.999999999999998 L 52.0 -8.000000000000004 L 52.0 -8.000000000000004 L 28.000000000000004 -7.9999999999999964 L 28.000000000000004 -7.9999999999999964 Z M 31.125000000000004 -7.9999999999999964 L 31.125000000000004 -7.9999999999999964 L 48.875 -8.000000000000004 L 48.875 -8.000000000000004 L 31.125000000000004 -7.9999999999999964 Z " stroke="#191919" stroke-width="0.7 px" style="stroke-width:0.7;stroke-miterlimit:4;stroke-dasharray:none;stroke-linecap:square;fill:#d81919;fill-opacity:1.0;fill-rule: evenodd"/>
<path id="Release_Enclosure_Body_f0014"  d="M 51.24999999999999 -30.700000000000003 A 0.05 0.05 0 0 0 51.2 -30.75L 51.199999999999996 -30.75 A 0.05 0.05 0 0 1 51.25 -30.7L 51.25 -30.700000000000003 Z " stroke="#191919" stroke-width="0.7 px" style="stroke-width:0.7;stroke-miterlimit:4;stroke-dasharray:none;stroke-linecap:square;fill:#d81919;fill-opacity:1.0;fill-rule: evenodd"/>
<path id="Release_Enclosure_Body_f0015"  d="M 51.25 -9.300000000000004 L 51.25 -30.700000000000003 L 51.25 -30.700000000000003 L 51.25 -9.300000000000004 L 51.25 -9.300000000000004 Z " stroke="#191919" stroke-width="0.7 px" style="stroke-width:0.7;stroke-miterlimit:4;stroke-dasharray:none;stroke-linecap:square;fill:#d81919;fill-opacity:1.0;fill-rule: evenodd"/>
<path id="Release_Enclosure_Body_f0016"  d="M 51.25 -9.300000000000002 L 51.25 -9.300000000000002 A 0.05 0.05 0 0 1 51.2 -9.25L 51.2 -9.250000000000004 A 0.05 0.05 0 0 0 51.25 -9.3Z " stroke="#191919" stroke-width="0.7 px" style="stroke-width:0.7;stroke-miterlimit:4;stroke-dasharray:none;stroke-linecap:square;fill:#d81919;fill-opacity:1.0;fill-rule: evenodd"/>
<path id="Release_Enclosure_Body_f0017"  d="M 51.2 -9.250000000000004 L 51.2 -9.250000000000004 L 28.800000000000004 -9.249999999999996 L 28.800000000000004 -9.249999999999998 L 51.2 -9.250000000000004 Z " stroke="#191919" stroke-width="0.7 px" style="stroke-width:0.7;stroke-miterlimit:4;stroke-dasharray:none;stroke-linecap:square;fill:#d81919;fill-opacity:1.0;fill-rule: evenodd"/>
<path id="Release_Enclosure_Body_f0018"  d="M 28.750000000000004 -9.299999999999999 A 0.05 0.05 0 0 0 28.8 -9.25L 28.800000000000004 -9.249999999999998 A 0.05 0.05 0 0 1 28.75 -9.3L 28.750000000000004 -9.299999999999997 Z " stroke="#191919" stroke-width="0.7 px" style="stroke-width:0.7;stroke-miterlimit:4;stroke-dasharray:none;stroke-linecap:square;fill:#d81919;fill-opacity:1.0;fill-rule: evenodd"/>
<path id="Release_Enclosure_Body_f0019"  d="M 28.75 -9.299999999999999 L 28.75 -9.299999999999999 L 28.75 -30.7 L 28.749999999999996 -30.699999999999996 L 28.750000000000004 -9.3 Z " stroke="#191919" stroke-width="0.7 px" style="stroke-width:0.7;stroke-miterlimit:4;stroke-dasharray:none;stroke-linecap:square;fill:#d81919;fill-opacity:1.0;fill-rule: evenodd"/>
<path id="Release_Enclosure_Body_f0020"  d="M 28.75 -30.699999999999996 L 28.75 -30.699999999999996 A 0.05 0.05 0 0 1 28.8 -30.75L 28.799999999999997 -30.749999999999996 A 0.05 0.05 0 0 0 28.75 -30.7Z " stroke="#191919" stroke-width="0.7 px" style="stroke-width:0.7;stroke-miterlimit:4;stroke-dasharray:none;stroke-linecap:square;fill:#d81919;fill-opacity:1.0;fill-rule: evenodd"/>
<path id="Release_Enclosure_Body_f0021"  d="M 28.799999999999997 -30.749999999999996 L 51.199999999999996 -30.750000000000004 L 51.199999999999996 -30.750000000000004 L 28.799999999999997 -30.749999999999996 L 28.799999999999997 -30.75 Z " stroke="#191919" stroke-width="0.7 px" style="stroke-width:0.7;stroke-miterlimit:4;stroke-dasharray:none;stroke-linecap:square;fill:#d81919;fill-opacity:1.0;fill-rule: evenodd"/>
<path id="Release_Enclosure_Body_f0022"  d="M 28.799999999999997 -30.749999999999996 L 51.199999999999996 -30.750000000000004 L 51.199999999999996 -30.75 L 28.799999999999997 -30.749999999999996 L 28.799999999999997 -30.749999999999996 Z M 34.0 -30.75 L 34.0 -30.75 L 46.0 -30.75 L 46.0 -30.75 L 34.0 -30.75 Z " stroke="#191919" stroke-width="0.7 px" style="stroke-width:0.7;stroke-miterlimit:4;stroke-dasharray:none;stroke-linecap:square;fill:#d81919;fill-opacity:1.0;fill-rule: evenodd"/>
<path id="Release_Enclosure_Body_f0023"  d="M 48.875 -8.000000000000002 L 48.875 -9.250000000000002 L 31.125 -9.249999999999998 L 31.125000000000004 -7.9999999999999964 L 48.875 -8.000000000000004 Z " stroke="#191919" stroke-width="0.7 px" style="stroke-width:0.7;stroke-miterlimit:4;stroke-dasharray:none;stroke-linecap:square;fill:#d81919;fill-opacity:1.0;fill-rule: evenodd"/>
<path id="Release_Enclosure_Body_f0024"  d="M 31.125000000000004 -7.999999999999998 L 31.125000000000004 -7.999999999999998 L 31.125 -9.249999999999998 L 31.125000000000004 -9.249999999999996 L 31.125000000000004 -7.9999999999999964 Z " stroke="#191919" stroke-width="0.7 px" style="stroke-width:0.7;stroke-miterlimit:4;stroke-dasharray:none;stroke-linecap:square;fill:#d81919;fill-opacity:1.0;fill-rule: evenodd"/>
<path id="Release_Enclosure_Body_f0025"  d="M 48.875 -8.000000000000002 L 31.125 -7.999999999999997 L 31.125 -9.249999999999998 L 48.875 -9.250000000000004 L 48.875 -8.000000000000004 Z " stroke="#191919" stroke-width="0.7 px" style="stroke-width:0.7;stroke-miterlimit:4;stroke-dasharray:none;stroke-linecap:square;fill:#d81919;fill-opacity:1.0;fill-rule: evenodd"/>
<path id="Release_Enclosure_Body_f0026"  d="M 48.875 -8.000000000000002 L 48.875 -9.250000000000002 L 48.875 -9.250000000000002 L 48.875 -8.000000000000004 L 48.875 -8.000000000000004 Z " stroke="#191919" stroke-width="0.7 px" style="stroke-width:0.7;stroke-miterlimit:4;stroke-dasharray:none;stroke-linecap:square;fill:#d81919;fill-opacity:1.0;fill-rule: evenodd"/>
<path id="Release_Enclosure_Body_f0027"  d="M 27.750000000000004 -8.249999999999996 L 52.25 -8.250000000000004 L 52.25 -31.750000000000004 L 27.75 -31.749999999999996 L 27.750000000000004 -8.249999999999996 Z M 51.199999999999996 -30.75 L 28.799999999999997 -30.749999999999996 A 0.05 0.05 0 0 0 28.75 -30.7L 28.750000000000004 -9.299999999999997 A 0.05 0.05 0 0 0 28.8 -9.25L 51.2 -9.250000000000004 A 0.05 0.05 0 0 0 51.25 -9.3L 51.25 -30.700000000000003 A 0.05 0.05 0 0 0 51.2 -30.75Z " stroke="#191919" stroke-width="0.7 px" style="stroke-width:0.7;stroke-miterlimit:4;stroke-dasharray:none;stroke-linecap:square;fill:#d81919;fill-opacity:1.0;fill-rule: evenodd"/>
<path id="Release_Enclosure_Body_f0028"  d="M 27.749999999999996 -31.749999999999996 L 52.25 -31.750000000000004 L 52.25000000000001 -8.250000000000004 L 27.75 -8.249999999999998 L 27.749999999999996 -31.749999999999996 Z M 51.25 -9.300000000000004 L 51.25 -30.700000000000003 A 0.05 0.05 0 0 0 51.2 -30.75L 28.799999999999997 -30.749999999999996 A 0.05 0.05 0 0 0 28.75 -30.7L 28.750000000000004 -9.299999999999997 A 0.05 0.05 0 0 0 28.8 -9.25L 51.2 -9.250000000000004 A 0.05 0.05 0 0 0 51.25 -9.3Z " stroke="#191919" stroke-width="0.7 px" style="stroke-width:0.7;stroke-miterlimit:4;stroke-dasharray:none;stroke-linecap:square;fill:#d81919;fill-opacity:1.0;fill-rule: evenodd"/>
<circle cx="48.875" cy="-29.375" r="1.25" stroke="#191919" stroke-width="0.7 px" style="stroke-width:0.7;stroke-miterlimit:4;stroke-dasharray:none;stroke-linecap:square;fill:#d81919"/>
<path id="Release_Enclosure_Body_f0032"  d="M 28.800000000000004 -9.249999999999996 L 51.2 -9.250000000000004 L 51.2 -9.250000000000002 L 28.800000000000004 -9.249999999999996 L 28.800000000000004 -9.249999999999996 Z M 48.875 -9.250000000000004 L 48.875 -9.250000000000004 L 31.125000000000004 -9.249999999999996 L 31.125000000000004 -9.249999999999996 L 48.875 -9.250000000000004 Z " stroke="#191919" stroke-width="0.7 px" style="stroke-width:0.7;stroke-miterlimit:4;stroke-dasharray:none;stroke-linecap:square;fill:#d81919;fill-opacity:1.0;fill-rule: evenodd"/>
<path id="Release_Enclosure_Body_f0033"  d="M 52.25 -31.750000000000004 L 52.25 -31.750000000000004 L 27.75 -31.749999999999996 L 27.75 -31.749999999999996 L 52.25 -31.750000000000004 Z " stroke="#191919" stroke-width="0.7 px" style="stroke-width:0.7;stroke-miterlimit:4;stroke-dasharray:none;stroke-linecap:square;fill:#d81919;fill-opacity:1.0;fill-rule: evenodd"/>
<path id="Release_Enclosure_Body_f0034"  d="M 27.749999999999996 -31.749999999999996 L 27.749999999999996 -31.749999999999996 L 27.750000000000004 -8.249999999999996 L 27.75 -8.249999999999996 L 27.749999999999996 -31.749999999999996 Z " stroke="#191919" stroke-width="0.7 px" style="stroke-width:0.7;stroke-miterlimit:4;stroke-dasharray:none;stroke-linecap:square;fill:#d81919;fill-opacity:1.0;fill-rule: evenodd"/>
<path id="Release_Enclosure_Body_f0035"  d="M 52.25 -8.250000000000004 L 52.25 -31.750000000000004 L 52.25 -31.750000000000004 L 52.25000000000001 -8.250000000000004 L 52.25 -8.250000000000004 Z " stroke="#191919" stroke-width="0.7 px" style="stroke-width:0.7;stroke-miterlimit:4;stroke-dasharray:none;stroke-linecap:square;fill:#d81919;fill-opacity:1.0;fill-rule: evenodd"/>
<path id="Release_Enclosure_Body_f0036"  d="M 27.750000000000004 -8.249999999999996 L 52.25 -8.250000000000004 L 52.25 -8.250000000000004 L 27.75 -8.249999999999998 L 27.750000000000004 -8.249999999999996 Z " stroke="#191919" stroke-width="0.7 px" style="stroke-width:0.7;stroke-miterlimit:4;stroke-dasharray:none;stroke-linecap:square;fill:#d81919;fill-opacity:1.0;fill-rule: evenodd"/>
<path id="Release_Enclosure_Body_f0037"  d="M 51.25000000000001 -9.3 L 51.25 -30.7 L 51.25 -30.700000000000003 L 51.25 -9.300000000000004 L 51.25 -9.300000000000004 Z " stroke="#191919" stroke-width="0.7 px" style="stroke-width:0.7;stroke-miterlimit:4;stroke-dasharray:none;stroke-linecap:square;fill:#d81919;fill-opacity:1.0;fill-rule: evenodd"/>
<path id="Release_Enclosure_Body_f0040"  d="M 28.75 -9.299999999999999 L 28.75 -9.299999999999999 L 28.75 -30.7 L 28.749999999999996 -30.699999999999996 L 28.750000000000004 -9.299999999999997 Z " stroke="#191919" stroke-width="0.7 px" style="stroke-width:0.7;stroke-miterlimit:4;stroke-dasharray:none;stroke-linecap:square;fill:#d81919;fill-opacity:1.0;fill-rule: evenodd"/>
<circle cx="48.875" cy="-29.375" r="1.25" stroke="#191919" stroke-width="0.7 px" style="stroke-width:0.7;stroke-miterlimit:4;stroke-dasharray:none;stroke-linecap:square;fill:#d81919"/>
<circle cx="49.875" cy="-10.625000000000002" r="1.25" stroke="#191919" stroke-width="0.7 px" style="stroke-width:0.7;stroke-miterlimit:4;stroke-dasharray:none;stroke-linecap:square;fill:#d81919"/>
<circle cx="31.125" cy="-29.375" r="1.25" stroke="#191919" stroke-width="0.7 px" style="stroke-width:0.7;stroke-miterlimit:4;stroke-dasharray:none;stroke-linecap:square;fill:#d81919"/>
<circle cx="30.125" cy="-10.624999999999998" r="1.25" stroke="#191919" stroke-width="0.7 px" style="stroke-width:0.7;stroke-miterlimit:4;stroke-dasharray:none;stroke-linecap:square;fill:#d81919"/>
<circle cx="48.875" cy="-29.375" r="1.25" stroke="#191919" stroke-width="0.7 px" style="stroke-width:0.7;stroke-miterlimit:4;stroke-dasharray:none;stroke-linecap:square;fill:#d81919"/>
<circle cx="49.875" cy="-10.625000000000002" r="1.25" stroke="#191919" stroke-width="0.7 px" style="stroke-width:0.7;stroke-miterlimit:4;stroke-dasharray:none;stroke-linecap:square;fill:#d81919"/>
<circle cx="31.125" cy="-29.375" r="1.25" stroke="#191919" stroke-width="0.7 px" style="stroke-width:0.7;stroke-miterlimit:4;stroke-dasharray:none;stroke-linecap:square;fill:#d81919"/>
<circle cx="30.125" cy="-10.624999999999998" r="1.25" stroke="#191919" stroke-width="0.7 px" style="stroke-width:0.7;stroke-miterlimit:4;stroke-dasharray:none;stroke-linecap:square;fill:#d81919"/>
<circle cx="48.875" cy="-29.375" r="0.75" stroke="#191919" stroke-width="0.7 px" style="stroke-width:0.7;stroke-miterlimit:4;stroke-dasharray:none;stroke-linecap:square;fill:#d81919"/>
<circle cx="49.875" cy="-10.625000000000002" r="0.75" stroke="#191919" stroke-width="0.7 px" style="stroke-width:0.7;stroke-miterlimit:4;stroke-dasharray:none;stroke-linecap:square;fill:#d81919"/>
<circle cx="31.125" cy="-29.375" r="0.75" stroke="#191919" stroke-width="0.7 px" style="stroke-width:0.7;stroke-miterlimit:4;stroke-dasharray:none;stroke-linecap:square;fill:#d81919"/>
<circle cx="30.125" cy="-10.624999999999998" r="0.75" stroke="#191919" stroke-width="0.7 px" style="stroke-width:0.7;stroke-miterlimit:4;stroke-dasharray:none;stroke-linecap:square;fill:#d81919"/>
<circle cx="48.875" cy="-29.375" r="0.75" stroke="#191919" stroke-width="0.7 px" style="stroke-width:0.7;stroke-miterlimit:4;stroke-dasharray:none;stroke-linecap:square;fill:#d81919"/>
<circle cx="49.875" cy="-10.625000000000002" r="0.75" stroke="#191919" stroke-width="0.7 px" style="stroke-width:0.7;stroke-miterlimit:4;stroke-dasharray:none;stroke-linecap:square;fill:#d81919"/>
<circle cx="31.125" cy="-29.375" r="0.75" stroke="#191919" stroke-width="0.7 px" style="stroke-width:0.7;stroke-miterlimit:4;stroke-dasharray:none;stroke-linecap:square;fill:#d81919"/>
<circle cx="30.125" cy="-10.624999999999998" r="0.75" stroke="#191919" stroke-width="0.7 px" style="stroke-width:0.7;stroke-miterlimit:4;stroke-dasharray:none;stroke-linecap:square;fill:#d81919"/>
<title>b'Release_Enclosure_Body'</title>
</g>
</svg>