<?xml version="1.0"?>
<!DOCTYPE svg PUBLIC "-//W3C//DTD SVG 1.1//EN" "http://www.w3.org/Graphics/SVG/1.1/DTD/svg11.dtd">
<svg width="26.520000000000017mm" height="26.520000000000003mm" viewBox="0 0 26.520000000000017 26.520000000000003" xmlns="http://www.w3.org/2000/svg" version="1.1">
<g id="Breakaway_Enclosure_Body" transform="translate(-61.740000,-6.740000) scale(1,-1)">
<path id="Breakaway_Enclosure_Body_f0000"  d="M 62.5 -32.99999999999999 L 87.5 -33.0 L 87.5 -33.0 L 62.5 -33.0 L 62.5 -33.0 Z M 82.2 -33.0 L 82.2 -33.0 L 67.95 -33.0 L 67.95 -33.0 L 82.2 -33.0 Z " stroke="#191919" stroke-width="0.7 px" style="stroke-width:0.7;stroke-miterlimit:4;stroke-dasharray:none;stroke-linecap:square;fill:#1933e5;fill-opacity:1.0;fill-rule: evenodd"/>
<path id="Breakaway_Enclosure_Body_f0001"  d="M 62.0 -32.5 L 62.0 -7.4999999999999964 A 0.5 0.5 0 0 0 62.5 -7L 87.5 -7.0000000000000036 A 0.5 0.5 0 0 0 88 -7.5L 88.0 -32.5 A 0.5 0.5 0 0 0 87.5 -33L 62.5 -33.0 A 0.5 0.5 0 0 0 62 -32.5Z M 86.75 -31.700000000000003 L 86.75 -8.300000000000004 A 0.05 0.05 0 0 1 86.7 -8.25L 63.300000000000004 -8.249999999999996 A 0.05 0.05 0 0 1 63.25 -8.3L 63.25 -31.699999999999996 A 0.05 0.05 0 0 1 63.3 -31.75L 86.69999999999999 -31.750000000000004 A 0.05 0.05 0 0 1 86.75 -31.7Z " stroke="#191919" stroke-width="0.7 px" style="stroke-width:0.7;stroke-miterlimit:4;stroke-dasharray:none;stroke-linecap:square;fill:#1933e5;fill-opacity:1.0;fill-rule: evenodd"/>
<path id="Breakaway_Enclosure_Body_f0002"  d="M 87.5 -33.0 A 0.5 0.5 0 0 1 88 -32.5L 88.0 -32.5 A 0.5 0.5 0 0 0 87.5 -33L 87.5 -33.0 Z " stroke="#191919" stroke-width="0.7 px" style="stroke-width:0.7;stroke-miterlimit:4;stroke-dasharray:none;stroke-linecap:square;fill:#1933e5;fill-opacity:1.0;fill-rule: evenodd"/>
<path id="Breakaway_Enclosure_Body_f0003"  d="M 62.5 -33.0 A 0.5 0.5 0 0 0 62 -32.5L 62.0 -32.5 A 0.5 0.5 0 0 1 62.5 -33L 62.5 -33.0 Z " stroke="#191919" stroke-width="0.7 px" style="stroke-width:0.7;stroke-miterlimit:4;stroke-dasharray:none;stroke-linecap:square;fill:#1933e5;fill-opacity:1.0;fill-rule: evenodd"/>
<path id="Breakaway_Enclosure_Body_f0004"  d="M 62.00000000000001 -7.5 L 62.0 -32.5 A 0.5 0.5 0 0 1 62.5 -33L 87.5 -33.0 A 0.5 0.5 0 0 1 88 -32.5L 88.0 -7.5000000000000036 A 0.5 0.5 0 0 1 87.5 -7L 62.5 -6.9999999999999964 A 0.5 0.5 0 0 1 62 -7.5Z " stroke="#191919" stroke-width="0.7 px" style="stroke-width:0.7;stroke-miterlimit:4;stroke-dasharray:none;stroke-linecap:square;fill:#1933e5;fill-opacity:1.0;fill-rule: evenodd"/>
<path id="Breakaway_Enclosure_Body_f0005"  d="M 82.2 -31.75 L 82.2 -33.0 L 67.94999999999999 -32.99999999999999 L 67.95 -31.75 L 82.2 -31.75 Z " stroke="#191919" stroke-width="0.7 px" style="stroke-width:0.7;stroke-miterlimit:4;stroke-dasharray:none;stroke-linecap:square;fill:#1933e5;fill-opacity:1.0;fill-rule: evenodd"/>
<path id="Breakaway_Enclosure_Body_f0006"  d="M 67.95 -31.75 L 67.95 -31.75 L 67.95 -33.0 L 67.95 -33.0 L 67.95 -31.75 Z " stroke="#191919" stroke-width="0.7 px" style="stroke-width:0.7;stroke-miterlimit:4;stroke-dasharray:none;stroke-linecap:square;fill:#1933e5;fill-opacity:1.0;fill-rule: evenodd"/>
<path id="Breakaway_Enclosure_Body_f0007"  d="M 82.19999999999999 -31.75 L 67.94999999999999 -31.749999999999996 L 67.95 -33.0 L 82.2 -33.0 L 82.2 -31.75 Z " stroke="#191919" stroke-width="0.7 px" style="stroke-width:0.7;stroke-miterlimit:4;stroke-dasharray:none;stroke-linecap:square;fill:#1933e5;fill-opacity:1.0;fill-rule: evenodd"/>
<path id="Breakaway_Enclosure_Body_f0008"  d="M 82.2 -31.75 L 82.2 -33.0 L 82.2 -33.0 L 82.2 -31.75 L 82.2 -31.75 Z " stroke="#191919" stroke-width="0.7 px" style="stroke-width:0.7;stroke-miterlimit:4;stroke-dasharray:none;stroke-linecap:square;fill:#1933e5;fill-opacity:1.0;fill-rule: evenodd"/>
<path id="Breakaway_Enclosure_Body_f0009"  d="M 88.0 -7.5 L 88.0 -32.5 L 88.0 -32.5 L 88.0 -7.5000000000000036 L 88.0 -7.5000000000000036 Z " stroke="#191919" stroke-width="0.7 px" style="stroke-width:0.7;stroke-miterlimit:4;stroke-dasharray:none;stroke-linecap:square;fill:#1933e5;fill-opacity:1.0;fill-rule: evenodd"/>
<path id="Breakaway_Enclosure_Body_f0010"  d="M 62.00000000000001 -7.5 L 62.0 -32.5 L 62.0 -32.5 L 62.0 -7.4999999999999964 L 62.0 -7.4999999999999964 Z " stroke="#191919" stroke-width="0.7 px" style="stroke-width:0.7;stroke-miterlimit:4;stroke-dasharray:none;stroke-linecap:square;fill:#1933e5;fill-opacity:1.0;fill-rule: evenodd"/>
<path id="Breakaway_Enclosure_Body_f0011"  d="M 87.5 -7.0000000000000036 A 0.5 0.5 0 0 0 88 -7.5L 88.0 -7.5000000000000036 A 0.5 0.5 0 0 1 87.5 -7L 87.5 -7.0000000000000036 Z " stroke="#191919" stroke-width="0.7 px" style="stroke-width:0.7;stroke-miterlimit:4;stroke-dasharray:none;stroke-linecap:square;fill:#1933e5;fill-opacity:1.0;fill-rule: evenodd"/>
<path id="Breakaway_Enclosure_Body_f0012"  d="M 62.5 -6.9999999999999964 A 0.5 0.5 0 0 1 62 -7.5L 62.0 -7.4999999999999964 A 0.5 0.5 0 0 0 62.5 -7L 62.5 -6.9999999999999964 Z " stroke="#191919" stroke-width="0.7 px" style="stroke-width:0.7;stroke-miterlimit:4;stroke-dasharray:none;stroke-linecap:square;fill:#1933e5;fill-opacity:1.0;fill-rule: evenodd"/>
<path id="Breakaway_Enclosure_Body_f0013"  d="M 62.5 -6.999999999999998 L 87.5 -7.0000000000000036 L 87.5 -7.0000000000000036 L 62.5 -6.9999999999999964 L 62.5 -6.9999999999999964 Z M 66.125 -6.9999999999999964 L 66.125 -6.9999999999999964 L 83.875 -7.0000000000000036 L 83.875 -7.0000000000000036 L 66.125 -6.9999999999999964 Z " stroke="#191919" stroke-width="0.7 px" style="stroke-width:0.7;stroke-miterlimit:4;stroke-dasharray:none;stroke-linecap:square;fill:#1933e5;fill-opacity:1.0;fill-rule: evenodd"/>
<path id="Breakaway_Enclosure_Body_f0014"  d="M 86.75 -31.700000000000003 A 0.05 0.05 0 0 0 86.7 -31.75L 86.7 -31.75 A 0.05 0.05 0 0 1 86.75 -31.7L 86.75 -31.700000000000003 Z " stroke="#191919" stroke-width="0.7 px" style="stroke-width:0.7;stroke-miterlimit:4;stroke-dasharray:none;stroke-linecap:square;fill:#1933e5;fill-opacity:1.0;fill-rule: evenodd"/>
<path id="Breakaway_Enclosure_Body_f0015"  d="M 86.75 -8.300000000000004 L 86.75 -31.700000000000003 L 86.75 -31.700000000000003 L 86.75 -8.300000000000004 L 86.75 -8.300000000000004 Z " stroke="#191919" stroke-width="0.7 px" style="stroke-width:0.7;stroke-miterlimit:4;stroke-dasharray:none;stroke-linecap:square;fill:#1933e5;fill-opacity:1.0;fill-rule: evenodd"/>
<path id="Breakaway_Enclosure_Body_f0016"  d="M 86.75 -8.300000000000002 L 86.75 -8.300000000000002 A 0.05 0.05 0 0 1 86.7 -8.25L 86.7 -8.250000000000004 A 0.05 0.05 0 0 0 86.75 -8.3Z " stroke="#191919" stroke-width="0.7 px" style="stroke-width:0.7;stroke-miterlimit:4;stroke-dasharray:none;stroke-linecap:square;fill:#1933e5;fill-opacity:1.0;fill-rule: evenodd"/>
<path id="Breakaway_Enclosure_Body_f0017"  d="M 86.7 -8.250000000000004 L 86.7 -8.250000000000004 L 63.300000000000004 -8.249999999999996 L 63.300000000000004 -8.249999999999998 L 86.7 -8.250000000000004 Z " stroke="#191919" stroke-width="0.7 px" style="stroke-width:0.7;stroke-miterlimit:4;stroke-dasharray:none;stroke-linecap:square;fill:#1933e5;fill-opacity:1.0;fill-rule: evenodd"/>
<path id="Breakaway_Enclosure_Body_f0018"  d="M 63.25000000000001 -8.299999999999999 A 0.05 0.05 0 0 0 63.3 -8.25L 63.300000000000004 -8.249999999999998 A 0.05 0.05 0 0 1 63.25 -8.3L 63.25 -8.299999999999997 Z " stroke="#191919" stroke-width="0.7 px" style="stroke-width:0.7;stroke-miterlimit:4;stroke-dasharray:none;stroke-linecap:square;fill:#1933e5;fill-opacity:1.0;fill-rule: evenodd"/>
<path id="Breakaway_Enclosure_Body_f0019"  d="M 63.25 -8.299999999999999 L 63.25 -8.299999999999999 L 63.25 -31.7 L 63.25 -31.699999999999996 L 63.25000000000001 -8.3 Z " stroke="#191919" stroke-width="0.7 px" style="stroke-width:0.7;stroke-miterlimit:4;stroke-dasharray:none;stroke-linecap:square;fill:#1933e5;fill-opacity:1.0;fill-rule: evenodd"/>
<path id="Breakaway_Enclosure_Body_f0020"  d="M 63.25 -31.699999999999996 L 63.25 -31.699999999999996 A 0.05 0.05 0 0 1 63.3 -31.75L 63.3 -31.749999999999996 A 0.05 0.05 0 0 0 63.25 -31.7Z " stroke="#191919" stroke-width="0.7 px" style="stroke-width:0.7;stroke-miterlimit:4;stroke-dasharray:none;stroke-linecap:square;fill:#1933e5;fill-opacity:1.0;fill-rule: evenodd"/>
<path id="Breakaway_Enclosure_Body_f0021"  d="M 63.3 -31.749999999999996 L 86.69999999999999 -31.750000000000004 L 86.69999999999999 -31.750000000000004 L 63.3 -31.749999999999996 L 63.3 -31.75 Z " stroke="#191919" stroke-width="0.7 px" style="stroke-width:0.7;stroke-miterlimit:4;stroke-dasharray:none;stroke-linecap:square;fill:#1933e5;fill-opacity:1.0;fill-rule: evenodd"/>
<path id="Breakaway_Enclosure_Body_f0022"  d="M 63.3 -31.749999999999996 L 86.69999999999999 -31.750000000000004 L 86.7 -31.75 L 63.3 -31.749999999999996 L 63.3 -31.749999999999996 Z M 67.95 -31.75 L 67.95 -31.75 L 82.2 -31.75 L 82.2 -31.75 L 67.95 -31.75 Z " stroke="#191919" stroke-width="0.7 px" style="stroke-width:0.7;stroke-miterlimit:4;stroke-dasharray:none;stroke-linecap:square;fill:#1933e5;fill-opacity:1.0;fill-rule: evenodd"/>
<path id="Breakaway_Enclosure_Body_f0023"  d="M 83.875 -7.000000000000002 L 83.875 -8.250000000000002 L 66.125 -8.249999999999998 L 66.125 -6.9999999999999964 L 83.875 -7.0000000000000036 Z " stroke="#191919" stroke-width="0.7 px" style="stroke-width:0.7;stroke-miterlimit:4;stroke-dasharray:none;stroke-linecap:square;fill:#1933e5;fill-opacity:1.0;fill-rule: evenodd"/>
<path id="Breakaway_Enclosure_Body_f0024"  d="M 66.125 -6.999999999999998 L 66.125 -6.999999999999998 L 66.125 -8.249999999999998 L 66.125 -8.249999999999996 L 66.125 -6.9999999999999964 Z " stroke="#191919" stroke-width="0.7 px" style="stroke-width:0.7;stroke-miterlimit:4;stroke-dasharray:none;stroke-linecap:square;fill:#1933e5;fill-opacity:1.0;fill-rule: evenodd"/>
<path id="Breakaway_Enclosure_Body_f0025"  d="M 83.875 -7.000000000000001 L 66.125 -6.999999999999997 L 66.125 -8.249999999999998 L 83.875 -8.250000000000004 L 83.875 -7.0000000000000036 Z " stroke="#191919" stroke-width="0.7 px" style="stroke-width:0.7;stroke-miterlimit:4;stroke-dasharray:none;stroke-linecap:square;fill:#1933e5;fill-opacity:1.0;fill-rule: evenodd"/>
<path id="Breakaway_Enclosure_Body_f0026"  d="M 83.875 -7.000000000000002 L 83.875 -8.250000000000002 L 83.875 -8.250000000000002 L 83.875 -7.0000000000000036 L 83.875 -7.0000000000000036 Z " stroke="#191919" stroke-width="0.7 px" style="stroke-width:0.7;stroke-miterlimit:4;stroke-dasharray:none;stroke-linecap:square;fill:#1933e5;fill-opacity:1.0;fill-rule: evenodd"/>
<path id="Breakaway_Enclosure_Body_f0027"  d="M 62.5 -7.4999999999999964 L 87.5 -7.5000000000000036 L 87.5 -32.5 L 62.5 -32.49999999999999 L 62.50000000000001 -7.5 Z M 86.69999999999999 -31.750000000000004 L 63.3 -31.749999999999996 A 0.05 0.05 0 0 0 63.25 -31.7L 63.25 -8.299999999999997 A 0.05 0.05 0 0 0 63.3 -8.25L 86.7 -8.250000000000004 A 0.05 0.05 0 0 0 86.75 -8.3L 86.75 -31.700000000000003 A 0.05 0.05 0 0 0 86.7 -31.75Z " stroke="#191919" stroke-width="0.7 px" style="stroke-width:0.7;stroke-miterlimit:4;stroke-dasharray:none;stroke-linecap:square;fill:#1933e5;fill-opacity:1.0;fill-rule: evenodd"/>
<path id="Breakaway_Enclosure_Body_f0028"  d="M 62.5 -32.5 L 87.5 -32.5 L 87.5 -7.5 L 62.5 -7.499999999999998 L 62.5 -32.5 Z M 86.75 -8.300000000000004 L 86.75 -31.700000000000003 A 0.05 0.05 0 0 0 86.7 -31.75L 63.3 -31.749999999999996 A 0.05 0.05 0 0 0 63.25 -31.7L 63.25 -8.299999999999997 A 0.05 0.05 0 0 0 63.3 -8.25L 86.7 -8.250000000000004 A 0.05 0.05 0 0 0 86.75 -8.3Z " stroke="#191919" stroke-width="0.7 px" style="stroke-width:0.7;stroke-miterlimit:4;stroke-dasharray:none;stroke-linecap:square;fill:#1933e5;fill-opacity:1.0;fill-rule: evenodd"/>
<circle cx="84.375" cy="-30.375" r="1.25" stroke="#191919" stroke-width="0.7 px" style="stroke-width:0.7;stroke-miterlimit:4;stroke-dasharray:none;stroke-linecap:square;fill:#1933e5"/>
<path id="Breakaway_Enclosure_Body_f0032"  d="M 63.300000000000004 -8.249999999999996 L 86.7 -8.250000000000004 L 86.7 -8.250000000000002 L 63.300000000000004 -8.249999999999996 L 63.300000000000004 -8.249999999999996 Z M 83.875 -8.250000000000004 L 83.875 -8.250000000000004 L 66.125 -8.249999999999996 L 66.125 -8.249999999999996 L 83.875 -8.250000000000004 Z " stroke="#191919" stroke-width="0.7 px" style="stroke-width:0.7;stroke-miterlimit:4;stroke-dasharray:none;stroke-linecap:square;fill:#1933e5;fill-opacity:1.0;fill-rule: evenodd"/>
<path id="Breakaway_Enclosure_Body_f0033"  d="M 87.5 -32.5 L 87.5 -32.5 L 62.5 -32.49999999999999 L 62.5 -32.5 L 87.5 -32.5 Z " stroke="#191919" stroke-width="0.7 px" style="stroke-width:0.7;stroke-miterlimit:4;stroke-dasharray:none;stroke-linecap:square;fill:#1933e5;fill-opacity:1.0;fill-rule: evenodd"/>
<path id="Breakaway_Enclosure_Body_f0034"  d="M 62.5 -32.5 L 62.5 -32.5 L 62.50000000000001 -7.5 L 62.5 -7.4999999999999964 L 62.5 -32.5 Z " stroke="#191919" stroke-width="0.7 px" style="stroke-width:0.7;stroke-miterlimit:4;stroke-dasharray:none;stroke-linecap:square;fill:#1933e5;fill-opacity:1.0;fill-rule: evenodd"/>
<path id="Breakaway_Enclosure_Body_f0035"  d="M 87.5 -7.5000000000000036 L 87.5 -32.5 L 87.5 -32.5 L 87.5 -7.5 L 87.5 -7.5000000000000036 Z " stroke="#191919" stroke-width="0.7 px" style="stroke-width:0.7;stroke-miterlimit:4;stroke-dasharray:none;stroke-linecap:square;fill:#1933e5;fill-opacity:1.0;fill-rule: evenodd"/>
<path id="Breakaway_Enclosure_Body_f0036"  d="M 62.5 -7.4999999999999964 L 87.5 -7.5000000000000036 L 87.5 -7.5000000000000036 L 62.5 -7.499999999999998 L 62.5 -7.4999999999999964 Z " stroke="#191919" stroke-width="0.7 px" style="stroke-width:0.7;stroke-miterlimit:4;stroke-dasharray:none;stroke-linecap:square;fill:#1933e5;fill-opacity:1.0;fill-rule: evenodd"/>
<path id="Breakaway_Enclosure_Body_f0037"  d="M 86.75 -8.3 L 86.75 -31.7 L 86.75 -31.700000000000003 L 86.75 -8.300000000000004 L 86.75 -8.300000000000004 Z " stroke="#191919" stroke-width="0.7 px" style="stroke-width:0.7;stroke-miterlimit:4;stroke-dasharray:none;stroke-linecap:square;fill:#1933e5;fill-opacity:1.0;fill-rule: evenodd"/>
<path id="Breakaway_Enclosure_Body_f0040"  d="M 63.25 -8.299999999999999 L 63.25 -8.299999999999999 L 63.25 -31.7 L 63.25 -31.699999999999996 L 63.25 -8.299999999999997 Z " stroke="#191919" stroke-width="0.7 px" style="stroke-width:0.7;stroke-miterlimit:4;stroke-dasharray:none;stroke-linecap:square;fill:#1933e5;fill-opacity:1.0;fill-rule: evenodd"/>
<circle cx="84.375" cy="-30.375" r="1.25" stroke="#191919" stroke-width="0.7 px" style="stroke-width:0.7;stroke-miterlimit:4;stroke-dasharray:none;stroke-linecap:square;fill:#1933e5"/>
<circle cx="85.375" cy="-9.625000000000002" r="1.25" stroke="#191919" stroke-width="0.7 px" style="stroke-width:0.7;stroke-miterlimit:4;stroke-dasharray:none;stroke-linecap:square;fill:#1933e5"/>
<circle cx="65.625" cy="-30.375" r="1.25" stroke="#191919" stroke-width="0.7 px" style="stroke-width:0.7;stroke-miterlimit:4;stroke-dasharray:none;stroke-linecap:square;fill:#1933e5"/>
<circle cx="64.625" cy="-9.624999999999998" r="1.25" stroke="#191919" stroke-width="0.7 px" style="stroke-width:0.7;stroke-miterlimit:4;stroke-dasharray:none;stroke-linecap:square;fill:#1933e5"/>
<circle cx="84.375" cy="-30.375" r="1.25" stroke="#191919" stroke-width="0.7 px" style="stroke-width:0.7;stroke-miterlimit:4;stroke-dasharray:none;stroke-linecap:square;fill:#1933e5"/>
<circle cx="85.375" cy="-9.625000000000002" r="1.25" stroke="#191919" stroke-width="0.7 px" style="stroke-width:0.7;stroke-miterlimit:4;stroke-dasharray:none;stroke-linecap:square;fill:#1933e5"/>
<circle cx="65.625" cy="-30.375" r="1.25" stroke="#191919" stroke-width="0.7 px" style="stroke-width:0.7;stroke-miterlimit:4;stroke-dasharray:none;stroke-linecap:square;fill:#1933e5"/>
<circle cx="64.625" cy="-9.624999999999998" r="1.25" stroke="#191919" stroke-width="0.7 px" style="stroke-width:0.7;stroke-miterlimit:4;stroke-dasharray:none;stroke-linecap:square;fill:#1933e5"/>
<circle cx="84.375" cy="-30.375" r="0.75" stroke="#191919" stroke-width="0.7 px" style="stroke-width:0.7;stroke-miterlimit:4;stroke-dasharray:none;stroke-linecap:square;fill:#1933e5"/>
<circle cx="85.375" cy="-9.625000000000002" r="0.75" stroke="#191919" stroke-width="0.7 px" style="stroke-width:0.7;stroke-miterlimit:4;stroke-dasharray:none;stroke-linecap:square;fill:#1933e5"/>
<circle cx="65.625" cy="-30.375" r="0.75" stroke="#191919" stroke-width="0.7 px" style="stroke-width:0.7;stroke-miterlimit:4;stroke-dasharray:none;stroke-linecap:square;fill:#1933e5"/>
<circle cx="64.625" cy="-9.624999999999998" r="0.75" stroke="#191919" stroke-width="0.7 px" style="stroke-width:0.7;stroke-miterlimit:4;stroke-dasharray:none;stroke-linecap:square;fill:#1933e5"/>
<circle cx="84.375" cy="-30.375" r="0.75" stroke="#191919" stroke-width="0.7 px" style="stroke-width:0.7;stroke-miterlimit:4;stroke-dasharray:none;stroke-linecap:square;fill:#1933e5"/>
<circle cx="85.375" cy="-9.625000000000002" r="0.75" stroke="#191919" stroke-width="0.7 px" style="stroke-width:0.7;stroke-miterlimit:4;stroke-dasharray:none;stroke-linecap:square;fill:#1933e5"/>
<circle cx="65.625" cy="-30.375" r="0.75" stroke="#191919" stroke-width="0.7 px" style="stroke-width:0.7;stroke-miterlimit:4;stroke-dasharray:none;stroke-linecap:square;fill:#1933e5"/>
<circle cx="64.625" cy="-9.624999999999998" r="0.75" stroke="#191919" stroke-width="0.7 px" style="stroke-width:0.7;stroke-miterlimit:4;stroke-dasharray:none;stroke-linecap:square;fill:#1933e5"/>
<title>b'Breakaway_Enclosure_Body'</title>
</g>
</svg>